<?xml version="1.0" encoding="utf-8"?>
<!-- Generator: Adobe Adobe Illustrator 24.2.0, SVG Export Plug-In . SVG Version: 6.00 Build 0)  -->
<svg version="1.1" id="Layer_1" xmlns="http://www.w3.org/2000/svg" xmlns:xlink="http://www.w3.org/1999/xlink" x="0px" y="0px"
	 width="746px" height="684px" viewBox="0 0 746 684" style="enable-background:new 0 0 746 684;" xml:space="preserve">
<style type="text/css">
	.st0{stroke:#000000;stroke-miterlimit:10;}
</style>
<path class="st0" d="M78.67,585.64V98.36C78.67,53.43,115.1,17,160.04,17h487.27c44.94,0,81.36,36.43,81.36,81.36v487.27
	c0,44.94-36.43,81.36-81.36,81.36H160.04C115.1,667,78.67,630.57,78.67,585.64z"/>
<g>
	<g>
		<path class="st0" d="M120.34,298.72v26.1c0,4.14-3.36,7.5-7.5,7.5H44.5c-4.14,0-7.5-3.36-7.5-7.5v-26.1c0-4.14,3.36-7.5,7.5-7.5
			h68.34C116.99,291.22,120.34,294.58,120.34,298.72z"/>
		<path class="st0" d="M120.34,108.38v26.1c0,4.14-3.36,7.5-7.5,7.5H44.5c-4.14,0-7.5-3.36-7.5-7.5v-26.1c0-4.14,3.36-7.5,7.5-7.5
			h68.34C116.99,100.88,120.34,104.23,120.34,108.38z"/>
		
			<rect x="53.74" y="121.42" transform="matrix(-1 -1.224647e-16 1.224647e-16 -1 144.9811 433.1937)" class="st0" width="37.51" height="190.35"/>
	</g>
	<g>
		<path class="st0" d="M120.34,549.53v26.1c0,4.14-3.36,7.5-7.5,7.5H44.5c-4.14,0-7.5-3.36-7.5-7.5v-26.1c0-4.14,3.36-7.5,7.5-7.5
			h68.34C116.99,542.03,120.34,545.39,120.34,549.53z"/>
		<path class="st0" d="M120.34,359.18v26.1c0,4.14-3.36,7.5-7.5,7.5H44.5c-4.14,0-7.5-3.36-7.5-7.5v-26.1c0-4.14,3.36-7.5,7.5-7.5
			h68.34C116.99,351.68,120.34,355.04,120.34,359.18z"/>
		
			<rect x="53.74" y="372.23" transform="matrix(-1 -1.224647e-16 1.224647e-16 -1 144.9811 934.8063)" class="st0" width="37.51" height="190.35"/>
	</g>
</g>
</svg>
