<?xml version="1.0" encoding="utf-8"?>
<!-- Generator: Adobe Adobe Illustrator 24.2.0, SVG Export Plug-In . SVG Version: 6.00 Build 0)  -->
<svg version="1.1" id="Layer_1" xmlns="http://www.w3.org/2000/svg" xmlns:xlink="http://www.w3.org/1999/xlink" x="0px" y="0px"
	 width="663.5px" height="908px" viewBox="0 0 663.5 908" style="enable-background:new 0 0 663.5 908;" xml:space="preserve">
<g>
	<path d="M298.25,648.74v-42.34c0-2.54,2.06-4.6,4.6-4.6h57.8c2.54,0,4.6,2.06,4.6,4.6v42.34c0,2.54-2.06,4.6-4.6,4.6h-57.8
		C300.31,653.34,298.25,651.28,298.25,648.74z"/>
	<g>
		<g>
			<path d="M621.45,345.32L558.9,65.35c-3.24-14.52-12.27-27.25-25.15-35.49h0c-9.76-6.24-21.24-9.57-32.97-9.57H331.75H162.73
				c-11.74,0-23.21,3.33-32.97,9.57c-12.88,8.24-21.91,20.97-25.15,35.49L42.05,345.32c-1.29,5.79,3.15,11.28,9.12,11.28h280.58
				h280.58C618.3,356.59,622.74,351.1,621.45,345.32z"/>
		</g>
	</g>
	<g>
		<g>
			<path d="M634.77,369.02H331.75H28.73c-6.45,0-11.25,3.6-9.85,7.39l67.56,183.43c3.5,9.51,13.25,17.86,27.16,23.25
				c10.55,4.09,22.94,6.27,35.61,6.27h182.54h182.54c12.67,0,25.07-2.18,35.61-6.27h0c13.91-5.4,23.66-13.74,27.16-23.25
				l67.56-183.43C646.02,372.62,641.23,369.02,634.77,369.02z"/>
		</g>
	</g>
	<g>
		<g>
			<path d="M423.44,734.06L423.44,734.06c-13.16,0-23.82-10.73-23.82-23.98v-18.82c0-14.08-11.34-25.5-25.34-25.5h-42.53h-42.53
				c-13.99,0-25.34,11.42-25.34,25.5v18.82c0,13.24-10.67,23.98-23.82,23.98c-5.58,0-10.11,4.55-10.11,10.17v6.9l40.84,109.59
				c6.05,16.24,21.47,26.99,38.71,26.99h22.25H354c17.23,0,32.66-10.76,38.71-26.99l40.84-109.59v-6.9
				C433.55,738.61,429.02,734.06,423.44,734.06z"/>
		</g>
	</g>
</g>
</svg>
